<svg width="219" height="133" viewBox="0 0 219 133" fill="none" xmlns="http://www.w3.org/2000/svg">
<path d="M105 21H200M105 38.5H200M105 73.5H200M105 91H200M105 108.5H200M105 56H200" stroke="#3C7CFF" stroke-width="5"/>
<circle cx="26" cy="30" r="8.5" stroke="#3C7CFF" stroke-width="5"/>
<rect x="46.5" y="21.5" width="33" height="17" rx="2.5" fill="#3C7CFF" stroke="#3C7CFF" stroke-width="5"/>
<path d="M5 1.5H214C215.933 1.5 217.5 3.067 217.5 5V128C217.5 129.933 215.933 131.5 214 131.5H4.99999C3.067 131.5 1.5 129.933 1.5 128V5C1.5 3.067 3.067 1.5 5 1.5Z" stroke="#3C7CFF" stroke-width="3"/>
<path d="M42 53H40V55H42V53Z" fill="#3C7CFF"/>
<path d="M44 53H42V55H44V53Z" fill="#3C7CFF"/>
<path d="M46 53H44V55H46V53Z" fill="#3C7CFF"/>
<path d="M52 53H50V55H52V53Z" fill="#3C7CFF"/>
<path d="M54 53H52V55H54V53Z" fill="#3C7CFF"/>
<path d="M56 53H54V55H56V53Z" fill="#3C7CFF"/>
<path d="M62 53H60V55H62V53Z" fill="#3C7CFF"/>
<path d="M42 55H40V57H42V55Z" fill="#3C7CFF"/>
<path d="M44 55H42V57H44V55Z" fill="#3C7CFF"/>
<path d="M46 55H44V57H46V55Z" fill="#3C7CFF"/>
<path d="M48 55H46V57H48V55Z" fill="#3C7CFF"/>
<path d="M50 55H48V57H50V55Z" fill="#3C7CFF"/>
<path d="M52 55H50V57H52V55Z" fill="#3C7CFF"/>
<path d="M54 55H52V57H54V55Z" fill="#3C7CFF"/>
<path d="M56 55H54V57H56V55Z" fill="#3C7CFF"/>
<path d="M60 55H58V57H60V55Z" fill="#3C7CFF"/>
<path d="M62 55H60V57H62V55Z" fill="#3C7CFF"/>
<path d="M64 55H62V57H64V55Z" fill="#3C7CFF"/>
<path d="M66 55H64V57H66V55Z" fill="#3C7CFF"/>
<path d="M42 57H40V59H42V57Z" fill="#3C7CFF"/>
<path d="M44 57H42V59H44V57Z" fill="#3C7CFF"/>
<path d="M46 57H44V59H46V57Z" fill="#3C7CFF"/>
<path d="M48 57H46V59H48V57Z" fill="#3C7CFF"/>
<path d="M52 57H50V59H52V57Z" fill="#3C7CFF"/>
<path d="M54 57H52V59H54V57Z" fill="#3C7CFF"/>
<path d="M66 57H64V59H66V57Z" fill="#3C7CFF"/>
<path d="M44 59H42V61H44V59Z" fill="#3C7CFF"/>
<path d="M46 59H44V61H46V59Z" fill="#3C7CFF"/>
<path d="M48 59H46V61H48V59Z" fill="#3C7CFF"/>
<path d="M50 59H48V61H50V59Z" fill="#3C7CFF"/>
<path d="M54 59H52V61H54V59Z" fill="#3C7CFF"/>
<path d="M56 59H54V61H56V59Z" fill="#3C7CFF"/>
<path d="M60 59H58V61H60V59Z" fill="#3C7CFF"/>
<path d="M64 59H62V61H64V59Z" fill="#3C7CFF"/>
<path d="M66 59H64V61H66V59Z" fill="#3C7CFF"/>
<path d="M42 61H40V63H42V61Z" fill="#3C7CFF"/>
<path d="M44 61H42V63H44V61Z" fill="#3C7CFF"/>
<path d="M46 61H44V63H46V61Z" fill="#3C7CFF"/>
<path d="M50 61H48V63H50V61Z" fill="#3C7CFF"/>
<path d="M52 61H50V63H52V61Z" fill="#3C7CFF"/>
<path d="M56 61H54V63H56V61Z" fill="#3C7CFF"/>
<path d="M60 61H58V63H60V61Z" fill="#3C7CFF"/>
<path d="M62 61H60V63H62V61Z" fill="#3C7CFF"/>
<path d="M64 61H62V63H64V61Z" fill="#3C7CFF"/>
<path d="M44 63H42V65H44V63Z" fill="#3C7CFF"/>
<path d="M52 63H50V65H52V63Z" fill="#3C7CFF"/>
<path d="M54 63H52V65H54V63Z" fill="#3C7CFF"/>
<path d="M60 63H58V65H60V63Z" fill="#3C7CFF"/>
<path d="M66 63H64V65H66V63Z" fill="#3C7CFF"/>
<path d="M42 65H40V67H42V65Z" fill="#3C7CFF"/>
<path d="M46 65H44V67H46V65Z" fill="#3C7CFF"/>
<path d="M50 65H48V67H50V65Z" fill="#3C7CFF"/>
<path d="M54 65H52V67H54V65Z" fill="#3C7CFF"/>
<path d="M58 65H56V67H58V65Z" fill="#3C7CFF"/>
<path d="M62 65H60V67H62V65Z" fill="#3C7CFF"/>
<path d="M66 65H64V67H66V65Z" fill="#3C7CFF"/>
<path d="M44 67H42V69H44V67Z" fill="#3C7CFF"/>
<path d="M50 67H48V69H50V67Z" fill="#3C7CFF"/>
<path d="M54 67H52V69H54V67Z" fill="#3C7CFF"/>
<path d="M26 69H24V71H26V69Z" fill="#3C7CFF"/>
<path d="M32 69H30V71H32V69Z" fill="#3C7CFF"/>
<path d="M34 69H32V71H34V69Z" fill="#3C7CFF"/>
<path d="M36 69H34V71H36V69Z" fill="#3C7CFF"/>
<path d="M38 69H36V71H38V69Z" fill="#3C7CFF"/>
<path d="M40 69H38V71H40V69Z" fill="#3C7CFF"/>
<path d="M42 69H40V71H42V69Z" fill="#3C7CFF"/>
<path d="M44 69H42V71H44V69Z" fill="#3C7CFF"/>
<path d="M50 69H48V71H50V69Z" fill="#3C7CFF"/>
<path d="M52 69H50V71H52V69Z" fill="#3C7CFF"/>
<path d="M54 69H52V71H54V69Z" fill="#3C7CFF"/>
<path d="M56 69H54V71H56V69Z" fill="#3C7CFF"/>
<path d="M58 69H56V71H58V69Z" fill="#3C7CFF"/>
<path d="M60 69H58V71H60V69Z" fill="#3C7CFF"/>
<path d="M68 69H66V71H68V69Z" fill="#3C7CFF"/>
<path d="M74 69H72V71H74V69Z" fill="#3C7CFF"/>
<path d="M78 69H76V71H78V69Z" fill="#3C7CFF"/>
<path d="M80 69H78V71H80V69Z" fill="#3C7CFF"/>
<path d="M82 69H80V71H82V69Z" fill="#3C7CFF"/>
<path d="M26 71H24V73H26V71Z" fill="#3C7CFF"/>
<path d="M30 71H28V73H30V71Z" fill="#3C7CFF"/>
<path d="M42 71H40V73H42V71Z" fill="#3C7CFF"/>
<path d="M50 71H48V73H50V71Z" fill="#3C7CFF"/>
<path d="M54 71H52V73H54V71Z" fill="#3C7CFF"/>
<path d="M60 71H58V73H60V71Z" fill="#3C7CFF"/>
<path d="M64 71H62V73H64V71Z" fill="#3C7CFF"/>
<path d="M68 71H66V73H68V71Z" fill="#3C7CFF"/>
<path d="M72 71H70V73H72V71Z" fill="#3C7CFF"/>
<path d="M74 71H72V73H74V71Z" fill="#3C7CFF"/>
<path d="M78 71H76V73H78V71Z" fill="#3C7CFF"/>
<path d="M80 71H78V73H80V71Z" fill="#3C7CFF"/>
<path d="M28 73H26V75H28V73Z" fill="#3C7CFF"/>
<path d="M30 73H28V75H30V73Z" fill="#3C7CFF"/>
<path d="M34 73H32V75H34V73Z" fill="#3C7CFF"/>
<path d="M36 73H34V75H36V73Z" fill="#3C7CFF"/>
<path d="M38 73H36V75H38V73Z" fill="#3C7CFF"/>
<path d="M44 73H42V75H44V73Z" fill="#3C7CFF"/>
<path d="M46 73H44V75H46V73Z" fill="#3C7CFF"/>
<path d="M54 73H52V75H54V73Z" fill="#3C7CFF"/>
<path d="M60 73H58V75H60V73Z" fill="#3C7CFF"/>
<path d="M62 73H60V75H62V73Z" fill="#3C7CFF"/>
<path d="M68 73H66V75H68V73Z" fill="#3C7CFF"/>
<path d="M72 73H70V75H72V73Z" fill="#3C7CFF"/>
<path d="M78 73H76V75H78V73Z" fill="#3C7CFF"/>
<path d="M32 75H30V77H32V75Z" fill="#3C7CFF"/>
<path d="M34 75H32V77H34V75Z" fill="#3C7CFF"/>
<path d="M42 75H40V77H42V75Z" fill="#3C7CFF"/>
<path d="M44 75H42V77H44V75Z" fill="#3C7CFF"/>
<path d="M46 75H44V77H46V75Z" fill="#3C7CFF"/>
<path d="M54 75H52V77H54V75Z" fill="#3C7CFF"/>
<path d="M56 75H54V77H56V75Z" fill="#3C7CFF"/>
<path d="M60 75H58V77H60V75Z" fill="#3C7CFF"/>
<path d="M66 75H64V77H66V75Z" fill="#3C7CFF"/>
<path d="M68 75H66V77H68V75Z" fill="#3C7CFF"/>
<path d="M70 75H68V77H70V75Z" fill="#3C7CFF"/>
<path d="M76 75H74V77H76V75Z" fill="#3C7CFF"/>
<path d="M82 75H80V77H82V75Z" fill="#3C7CFF"/>
<path d="M26 77H24V79H26V77Z" fill="#3C7CFF"/>
<path d="M28 77H26V79H28V77Z" fill="#3C7CFF"/>
<path d="M30 77H28V79H30V77Z" fill="#3C7CFF"/>
<path d="M32 77H30V79H32V77Z" fill="#3C7CFF"/>
<path d="M38 77H36V79H38V77Z" fill="#3C7CFF"/>
<path d="M46 77H44V79H46V77Z" fill="#3C7CFF"/>
<path d="M50 77H48V79H50V77Z" fill="#3C7CFF"/>
<path d="M52 77H50V79H52V77Z" fill="#3C7CFF"/>
<path d="M54 77H52V79H54V77Z" fill="#3C7CFF"/>
<path d="M62 77H60V79H62V77Z" fill="#3C7CFF"/>
<path d="M66 77H64V79H66V77Z" fill="#3C7CFF"/>
<path d="M70 77H68V79H70V77Z" fill="#3C7CFF"/>
<path d="M72 77H70V79H72V77Z" fill="#3C7CFF"/>
<path d="M82 77H80V79H82V77Z" fill="#3C7CFF"/>
<path d="M30 79H28V81H30V79Z" fill="#3C7CFF"/>
<path d="M48 79H46V81H48V79Z" fill="#3C7CFF"/>
<path d="M50 79H48V81H50V79Z" fill="#3C7CFF"/>
<path d="M60 79H58V81H60V79Z" fill="#3C7CFF"/>
<path d="M62 79H60V81H62V79Z" fill="#3C7CFF"/>
<path d="M68 79H66V81H68V79Z" fill="#3C7CFF"/>
<path d="M70 79H68V81H70V79Z" fill="#3C7CFF"/>
<path d="M74 79H72V81H74V79Z" fill="#3C7CFF"/>
<path d="M76 79H74V81H76V79Z" fill="#3C7CFF"/>
<path d="M78 79H76V81H78V79Z" fill="#3C7CFF"/>
<path d="M80 79H78V81H80V79Z" fill="#3C7CFF"/>
<path d="M82 79H80V81H82V79Z" fill="#3C7CFF"/>
<path d="M28 81H26V83H28V81Z" fill="#3C7CFF"/>
<path d="M36 81H34V83H36V81Z" fill="#3C7CFF"/>
<path d="M38 81H36V83H38V81Z" fill="#3C7CFF"/>
<path d="M40 81H38V83H40V81Z" fill="#3C7CFF"/>
<path d="M42 81H40V83H42V81Z" fill="#3C7CFF"/>
<path d="M46 81H44V83H46V81Z" fill="#3C7CFF"/>
<path d="M54 81H52V83H54V81Z" fill="#3C7CFF"/>
<path d="M56 81H54V83H56V81Z" fill="#3C7CFF"/>
<path d="M60 81H58V83H60V81Z" fill="#3C7CFF"/>
<path d="M64 81H62V83H64V81Z" fill="#3C7CFF"/>
<path d="M66 81H64V83H66V81Z" fill="#3C7CFF"/>
<path d="M68 81H66V83H68V81Z" fill="#3C7CFF"/>
<path d="M70 81H68V83H70V81Z" fill="#3C7CFF"/>
<path d="M72 81H70V83H72V81Z" fill="#3C7CFF"/>
<path d="M78 81H76V83H78V81Z" fill="#3C7CFF"/>
<path d="M82 81H80V83H82V81Z" fill="#3C7CFF"/>
<path d="M26 83H24V85H26V83Z" fill="#3C7CFF"/>
<path d="M28 83H26V85H28V83Z" fill="#3C7CFF"/>
<path d="M34 83H32V85H34V83Z" fill="#3C7CFF"/>
<path d="M40 83H38V85H40V83Z" fill="#3C7CFF"/>
<path d="M44 83H42V85H44V83Z" fill="#3C7CFF"/>
<path d="M46 83H44V85H46V83Z" fill="#3C7CFF"/>
<path d="M52 83H50V85H52V83Z" fill="#3C7CFF"/>
<path d="M54 83H52V85H54V83Z" fill="#3C7CFF"/>
<path d="M58 83H56V85H58V83Z" fill="#3C7CFF"/>
<path d="M62 83H60V85H62V83Z" fill="#3C7CFF"/>
<path d="M72 83H70V85H72V83Z" fill="#3C7CFF"/>
<path d="M74 83H72V85H74V83Z" fill="#3C7CFF"/>
<path d="M78 83H76V85H78V83Z" fill="#3C7CFF"/>
<path d="M82 83H80V85H82V83Z" fill="#3C7CFF"/>
<path d="M34 85H32V87H34V85Z" fill="#3C7CFF"/>
<path d="M38 85H36V87H38V85Z" fill="#3C7CFF"/>
<path d="M50 85H48V87H50V85Z" fill="#3C7CFF"/>
<path d="M56 85H54V87H56V85Z" fill="#3C7CFF"/>
<path d="M64 85H62V87H64V85Z" fill="#3C7CFF"/>
<path d="M66 85H64V87H66V85Z" fill="#3C7CFF"/>
<path d="M76 85H74V87H76V85Z" fill="#3C7CFF"/>
<path d="M26 87H24V89H26V87Z" fill="#3C7CFF"/>
<path d="M32 87H30V89H32V87Z" fill="#3C7CFF"/>
<path d="M42 87H40V89H42V87Z" fill="#3C7CFF"/>
<path d="M44 87H42V89H44V87Z" fill="#3C7CFF"/>
<path d="M60 87H58V89H60V87Z" fill="#3C7CFF"/>
<path d="M62 87H60V89H62V87Z" fill="#3C7CFF"/>
<path d="M64 87H62V89H64V87Z" fill="#3C7CFF"/>
<path d="M74 87H72V89H74V87Z" fill="#3C7CFF"/>
<path d="M78 87H76V89H78V87Z" fill="#3C7CFF"/>
<path d="M80 87H78V89H80V87Z" fill="#3C7CFF"/>
<path d="M26 89H24V91H26V89Z" fill="#3C7CFF"/>
<path d="M28 89H26V91H28V89Z" fill="#3C7CFF"/>
<path d="M30 89H28V91H30V89Z" fill="#3C7CFF"/>
<path d="M38 89H36V91H38V89Z" fill="#3C7CFF"/>
<path d="M40 89H38V91H40V89Z" fill="#3C7CFF"/>
<path d="M44 89H42V91H44V89Z" fill="#3C7CFF"/>
<path d="M46 89H44V91H46V89Z" fill="#3C7CFF"/>
<path d="M52 89H50V91H52V89Z" fill="#3C7CFF"/>
<path d="M54 89H52V91H54V89Z" fill="#3C7CFF"/>
<path d="M58 89H56V91H58V89Z" fill="#3C7CFF"/>
<path d="M62 89H60V91H62V89Z" fill="#3C7CFF"/>
<path d="M64 89H62V91H64V89Z" fill="#3C7CFF"/>
<path d="M68 89H66V91H68V89Z" fill="#3C7CFF"/>
<path d="M70 89H68V91H70V89Z" fill="#3C7CFF"/>
<path d="M76 89H74V91H76V89Z" fill="#3C7CFF"/>
<path d="M82 89H80V91H82V89Z" fill="#3C7CFF"/>
<path d="M26 91H24V93H26V91Z" fill="#3C7CFF"/>
<path d="M28 91H26V93H28V91Z" fill="#3C7CFF"/>
<path d="M34 91H32V93H34V91Z" fill="#3C7CFF"/>
<path d="M36 91H34V93H36V91Z" fill="#3C7CFF"/>
<path d="M40 91H38V93H40V91Z" fill="#3C7CFF"/>
<path d="M42 91H40V93H42V91Z" fill="#3C7CFF"/>
<path d="M44 91H42V93H44V91Z" fill="#3C7CFF"/>
<path d="M46 91H44V93H46V91Z" fill="#3C7CFF"/>
<path d="M48 91H46V93H48V91Z" fill="#3C7CFF"/>
<path d="M52 91H50V93H52V91Z" fill="#3C7CFF"/>
<path d="M56 91H54V93H56V91Z" fill="#3C7CFF"/>
<path d="M58 91H56V93H58V91Z" fill="#3C7CFF"/>
<path d="M64 91H62V93H64V91Z" fill="#3C7CFF"/>
<path d="M68 91H66V93H68V91Z" fill="#3C7CFF"/>
<path d="M70 91H68V93H70V91Z" fill="#3C7CFF"/>
<path d="M72 91H70V93H72V91Z" fill="#3C7CFF"/>
<path d="M74 91H72V93H74V91Z" fill="#3C7CFF"/>
<path d="M76 91H74V93H76V91Z" fill="#3C7CFF"/>
<path d="M78 91H76V93H78V91Z" fill="#3C7CFF"/>
<path d="M26 93H24V95H26V93Z" fill="#3C7CFF"/>
<path d="M28 93H26V95H28V93Z" fill="#3C7CFF"/>
<path d="M30 93H28V95H30V93Z" fill="#3C7CFF"/>
<path d="M36 93H34V95H36V93Z" fill="#3C7CFF"/>
<path d="M38 93H36V95H38V93Z" fill="#3C7CFF"/>
<path d="M44 93H42V95H44V93Z" fill="#3C7CFF"/>
<path d="M46 93H44V95H46V93Z" fill="#3C7CFF"/>
<path d="M50 93H48V95H50V93Z" fill="#3C7CFF"/>
<path d="M52 93H50V95H52V93Z" fill="#3C7CFF"/>
<path d="M60 93H58V95H60V93Z" fill="#3C7CFF"/>
<path d="M64 93H62V95H64V93Z" fill="#3C7CFF"/>
<path d="M66 93H64V95H66V93Z" fill="#3C7CFF"/>
<path d="M68 93H66V95H68V93Z" fill="#3C7CFF"/>
<path d="M70 93H68V95H70V93Z" fill="#3C7CFF"/>
<path d="M72 93H70V95H72V93Z" fill="#3C7CFF"/>
<path d="M74 93H72V95H74V93Z" fill="#3C7CFF"/>
<path d="M76 93H74V95H76V93Z" fill="#3C7CFF"/>
<path d="M78 93H76V95H78V93Z" fill="#3C7CFF"/>
<path d="M80 93H78V95H80V93Z" fill="#3C7CFF"/>
<path d="M42 95H40V97H42V95Z" fill="#3C7CFF"/>
<path d="M48 95H46V97H48V95Z" fill="#3C7CFF"/>
<path d="M52 95H50V97H52V95Z" fill="#3C7CFF"/>
<path d="M58 95H56V97H58V95Z" fill="#3C7CFF"/>
<path d="M60 95H58V97H60V95Z" fill="#3C7CFF"/>
<path d="M62 95H60V97H62V95Z" fill="#3C7CFF"/>
<path d="M66 95H64V97H66V95Z" fill="#3C7CFF"/>
<path d="M74 95H72V97H74V95Z" fill="#3C7CFF"/>
<path d="M76 95H74V97H76V95Z" fill="#3C7CFF"/>
<path d="M42 97H40V99H42V97Z" fill="#3C7CFF"/>
<path d="M52 97H50V99H52V97Z" fill="#3C7CFF"/>
<path d="M56 97H54V99H56V97Z" fill="#3C7CFF"/>
<path d="M58 97H56V99H58V97Z" fill="#3C7CFF"/>
<path d="M64 97H62V99H64V97Z" fill="#3C7CFF"/>
<path d="M66 97H64V99H66V97Z" fill="#3C7CFF"/>
<path d="M70 97H68V99H70V97Z" fill="#3C7CFF"/>
<path d="M74 97H72V99H74V97Z" fill="#3C7CFF"/>
<path d="M76 97H74V99H76V97Z" fill="#3C7CFF"/>
<path d="M42 99H40V101H42V99Z" fill="#3C7CFF"/>
<path d="M44 99H42V101H44V99Z" fill="#3C7CFF"/>
<path d="M46 99H44V101H46V99Z" fill="#3C7CFF"/>
<path d="M50 99H48V101H50V99Z" fill="#3C7CFF"/>
<path d="M52 99H50V101H52V99Z" fill="#3C7CFF"/>
<path d="M58 99H56V101H58V99Z" fill="#3C7CFF"/>
<path d="M60 99H58V101H60V99Z" fill="#3C7CFF"/>
<path d="M64 99H62V101H64V99Z" fill="#3C7CFF"/>
<path d="M66 99H64V101H66V99Z" fill="#3C7CFF"/>
<path d="M74 99H72V101H74V99Z" fill="#3C7CFF"/>
<path d="M80 99H78V101H80V99Z" fill="#3C7CFF"/>
<path d="M82 99H80V101H82V99Z" fill="#3C7CFF"/>
<path d="M42 101H40V103H42V101Z" fill="#3C7CFF"/>
<path d="M48 101H46V103H48V101Z" fill="#3C7CFF"/>
<path d="M50 101H48V103H50V101Z" fill="#3C7CFF"/>
<path d="M52 101H50V103H52V101Z" fill="#3C7CFF"/>
<path d="M56 101H54V103H56V101Z" fill="#3C7CFF"/>
<path d="M58 101H56V103H58V101Z" fill="#3C7CFF"/>
<path d="M64 101H62V103H64V101Z" fill="#3C7CFF"/>
<path d="M66 101H64V103H66V101Z" fill="#3C7CFF"/>
<path d="M68 101H66V103H68V101Z" fill="#3C7CFF"/>
<path d="M70 101H68V103H70V101Z" fill="#3C7CFF"/>
<path d="M72 101H70V103H72V101Z" fill="#3C7CFF"/>
<path d="M74 101H72V103H74V101Z" fill="#3C7CFF"/>
<path d="M76 101H74V103H76V101Z" fill="#3C7CFF"/>
<path d="M42 103H40V105H42V103Z" fill="#3C7CFF"/>
<path d="M50 103H48V105H50V103Z" fill="#3C7CFF"/>
<path d="M52 103H50V105H52V103Z" fill="#3C7CFF"/>
<path d="M54 103H52V105H54V103Z" fill="#3C7CFF"/>
<path d="M58 103H56V105H58V103Z" fill="#3C7CFF"/>
<path d="M60 103H58V105H60V103Z" fill="#3C7CFF"/>
<path d="M62 103H60V105H62V103Z" fill="#3C7CFF"/>
<path d="M64 103H62V105H64V103Z" fill="#3C7CFF"/>
<path d="M66 103H64V105H66V103Z" fill="#3C7CFF"/>
<path d="M68 103H66V105H68V103Z" fill="#3C7CFF"/>
<path d="M72 103H70V105H72V103Z" fill="#3C7CFF"/>
<path d="M80 103H78V105H80V103Z" fill="#3C7CFF"/>
<path d="M46 105H44V107H46V105Z" fill="#3C7CFF"/>
<path d="M52 105H50V107H52V105Z" fill="#3C7CFF"/>
<path d="M58 105H56V107H58V105Z" fill="#3C7CFF"/>
<path d="M68 105H66V107H68V105Z" fill="#3C7CFF"/>
<path d="M72 105H70V107H72V105Z" fill="#3C7CFF"/>
<path d="M74 105H72V107H74V105Z" fill="#3C7CFF"/>
<path d="M78 105H76V107H78V105Z" fill="#3C7CFF"/>
<path d="M80 105H78V107H80V105Z" fill="#3C7CFF"/>
<path d="M82 105H80V107H82V105Z" fill="#3C7CFF"/>
<path d="M48 107H46V109H48V107Z" fill="#3C7CFF"/>
<path d="M52 107H50V109H52V107Z" fill="#3C7CFF"/>
<path d="M56 107H54V109H56V107Z" fill="#3C7CFF"/>
<path d="M68 107H66V109H68V107Z" fill="#3C7CFF"/>
<path d="M72 107H70V109H72V107Z" fill="#3C7CFF"/>
<path d="M76 107H74V109H76V107Z" fill="#3C7CFF"/>
<path d="M78 107H76V109H78V107Z" fill="#3C7CFF"/>
<path d="M82 107H80V109H82V107Z" fill="#3C7CFF"/>
<path d="M42 109H40V111H42V109Z" fill="#3C7CFF"/>
<path d="M48 109H46V111H48V109Z" fill="#3C7CFF"/>
<path d="M50 109H48V111H50V109Z" fill="#3C7CFF"/>
<path d="M60 109H58V111H60V109Z" fill="#3C7CFF"/>
<path d="M62 109H60V111H62V109Z" fill="#3C7CFF"/>
<path d="M64 109H62V111H64V109Z" fill="#3C7CFF"/>
<path d="M66 109H64V111H66V109Z" fill="#3C7CFF"/>
<path d="M70 109H68V111H70V109Z" fill="#3C7CFF"/>
<path d="M74 109H72V111H74V109Z" fill="#3C7CFF"/>
<path d="M76 109H74V111H76V109Z" fill="#3C7CFF"/>
<path d="M35.9 53H26.1H24V55.1V64.9V67H26.1H35.9H38V64.9V55.1V53H35.9ZM35.9 64.9H26.1V55.1H35.9V64.9Z" fill="#3C7CFF"/>
<path d="M79.9 53H70.1H68V55.1V64.9V67H70.1H79.9H82V64.9V55.1V53H79.9ZM79.9 64.9H70.1V55.1H79.9V64.9Z" fill="#3C7CFF"/>
<path d="M35.9 97H26.1H24V99.1V108.9V111H26.1H35.9H38V108.9V99.1V97H35.9ZM35.9 108.9H26.1V99.1H35.9V108.9Z" fill="#3C7CFF"/>
<path d="M34 57H28V63H34V57Z" fill="#3C7CFF"/>
<path d="M78 57H72V63H78V57Z" fill="#3C7CFF"/>
<path d="M34 101H28V107H34V101Z" fill="#3C7CFF"/>
</svg>
