<svg width="20" height="16" viewBox="0 0 20 16" fill="none" xmlns="http://www.w3.org/2000/svg">
<path d="M18.047 0.447998H1.641C1.20595 0.447998 0.78871 0.620751 0.480991 0.928282C0.173273 1.23581 0.000265111 1.65295 0 2.088L0 14.119C0 14.5542 0.172891 14.9716 0.480638 15.2794C0.788385 15.5871 1.20578 15.76 1.641 15.76H18.047C18.4822 15.76 18.8996 15.5871 19.2074 15.2794C19.5151 14.9716 19.688 14.5542 19.688 14.119V2.088C19.6877 1.65295 19.5147 1.23581 19.207 0.928282C18.8993 0.620751 18.482 0.447998 18.047 0.447998ZM6.016 3.729C6.59526 3.73058 7.15031 3.96161 7.55963 4.37149C7.96895 4.78137 8.19921 5.33673 8.2 5.916C8.19947 6.49544 7.96933 7.05105 7.55998 7.46115C7.15063 7.87125 6.59544 8.10241 6.016 8.104C5.43621 8.1032 4.8804 7.87253 4.47043 7.46256C4.06046 7.05259 3.82979 6.49678 3.829 5.917C3.82953 5.33704 4.06008 4.78097 4.47008 4.37079C4.88008 3.9606 5.43604 3.72979 6.016 3.729ZM9.844 11.822C9.82842 12.0102 9.73924 12.1846 9.59583 12.3074C9.45241 12.4303 9.26633 12.4915 9.078 12.478H2.953C2.76467 12.4915 2.57859 12.4303 2.43517 12.3074C2.29176 12.1846 2.20258 12.0102 2.187 11.822V11.166C2.23373 10.601 2.50151 10.0773 2.93217 9.70861C3.36283 9.33993 3.92157 9.15608 4.487 9.197H4.658C5.08889 9.3768 5.5511 9.46958 6.018 9.47C6.48493 9.46989 6.9472 9.3771 7.378 9.197H7.549C8.11443 9.15608 8.67317 9.33993 9.10383 9.70861C9.53449 10.0773 9.80227 10.601 9.849 11.166L9.844 11.822ZM17.5 10.022C17.4997 10.0943 17.4709 10.1636 17.4197 10.2147C17.3686 10.2659 17.2993 10.2947 17.227 10.295H12.3C12.2277 10.2947 12.1584 10.2659 12.1073 10.2147C12.0561 10.1636 12.0273 10.0943 12.027 10.022V9.475C12.0273 9.40268 12.0561 9.33339 12.1073 9.28225C12.1584 9.23111 12.2277 9.20226 12.3 9.202H17.222C17.2943 9.20226 17.3636 9.23111 17.4147 9.28225C17.4659 9.33339 17.4947 9.40268 17.495 9.475L17.5 10.022ZM17.5 7.835C17.4997 7.90732 17.4709 7.97661 17.4197 8.02775C17.3686 8.07889 17.2993 8.10773 17.227 8.108H12.3C12.2277 8.10773 12.1584 8.07889 12.1073 8.02775C12.0561 7.97661 12.0273 7.90732 12.027 7.835V7.288C12.0265 7.25176 12.0331 7.21579 12.0466 7.18215C12.0601 7.14851 12.0801 7.11787 12.1055 7.09202C12.1309 7.06616 12.1611 7.0456 12.1945 7.03152C12.2279 7.01744 12.2638 7.01013 12.3 7.01H17.222C17.2943 7.01026 17.3636 7.03911 17.4147 7.09025C17.4659 7.14139 17.4947 7.21068 17.495 7.283L17.5 7.835ZM17.5 5.648C17.4997 5.72032 17.4709 5.78961 17.4197 5.84075C17.3686 5.89189 17.2993 5.92073 17.227 5.921H12.3C12.2277 5.92073 12.1584 5.89189 12.1073 5.84075C12.0561 5.78961 12.0273 5.72032 12.027 5.648V5.101C12.0273 5.02868 12.0561 4.95939 12.1073 4.90825C12.1584 4.85711 12.2277 4.82826 12.3 4.828H17.222C17.2943 4.82826 17.3636 4.85711 17.4147 4.90825C17.4659 4.95939 17.4947 5.02868 17.495 5.101L17.5 5.648Z" fill="url(#paint0_linear)"/>
<defs>
<linearGradient id="paint0_linear" x1="15.081" y1="8.104" x2="11.6108" y2="16.491" gradientUnits="userSpaceOnUse">
<stop stop-color="#4388FF"/>
<stop offset="1" stop-color="#316BFF"/>
</linearGradient>
</defs>
</svg>
