<svg width="20" height="18" viewBox="0 0 20 18" fill="none" xmlns="http://www.w3.org/2000/svg">
<path d="M1.42603 17.419C1.16321 17.4018 0.916163 17.2884 0.731689 17.1004C0.547216 16.9124 0.438252 16.6631 0.426025 16.4V1.42901C0.449867 1.1812 0.570552 0.952835 0.761963 0.793638C0.953374 0.634441 1.1995 0.557262 1.44751 0.578977H1.75806C2.00187 0.560782 2.24256 0.640077 2.42798 0.799436C2.6134 0.958796 2.72866 1.18524 2.74731 1.42901V14.229C2.74194 14.346 2.76075 14.4628 2.80298 14.5721C2.84521 14.6813 2.90975 14.7806 2.99243 14.8635C3.07511 14.9465 3.17435 15.0114 3.28345 15.054C3.39255 15.0966 3.5092 15.116 3.62622 15.111H18.7307C18.8517 15.12 18.97 15.1527 19.0784 15.2073C19.1867 15.262 19.2833 15.3374 19.3625 15.4293C19.4418 15.5213 19.5023 15.6279 19.5403 15.7432C19.5783 15.8584 19.5932 15.98 19.5842 16.101V16.41C19.6014 16.6552 19.5211 16.8974 19.3616 17.0844C19.202 17.2714 18.9756 17.3883 18.7307 17.41L1.42603 17.419ZM15.4182 13.554C15.1728 13.5535 14.9377 13.4559 14.7639 13.2827C14.5901 13.1094 14.4918 12.8744 14.4905 12.629V6.28802C14.4918 6.04258 14.5901 5.80761 14.7639 5.63434C14.9377 5.46106 15.1728 5.3635 15.4182 5.36297H17.2747C17.5199 5.36402 17.7552 5.46173 17.929 5.63489C18.1027 5.80805 18.2015 6.04275 18.2034 6.28802V12.629C18.2015 12.8742 18.1027 13.1089 17.929 13.2821C17.7552 13.4553 17.5199 13.553 17.2747 13.554H15.4182ZM10.3176 13.554C10.0724 13.5535 9.83782 13.4559 9.66431 13.2825C9.49079 13.1092 9.39264 12.8742 9.39185 12.629V6.28802C9.39264 6.04277 9.49079 5.80779 9.66431 5.63446C9.83782 5.46113 10.0724 5.3635 10.3176 5.36297H12.1741C12.4196 5.3635 12.6554 5.46103 12.8293 5.63427C13.0033 5.80752 13.1012 6.04249 13.1028 6.28802V12.629C13.1012 12.8745 13.0033 13.1095 12.8293 13.2827C12.6554 13.456 12.4196 13.5535 12.1741 13.554H10.3176ZM5.21802 13.554C4.97258 13.5535 4.73755 13.4559 4.56372 13.2827C4.38989 13.1094 4.2916 12.8744 4.29028 12.629V8.91797C4.29081 8.67201 4.38882 8.43631 4.56274 8.26239C4.73666 8.08847 4.97206 7.99052 5.21802 7.98999H7.07153C7.31749 7.99052 7.55386 8.08847 7.72778 8.26239C7.9017 8.43631 7.99972 8.67201 8.00024 8.91797V12.629C7.99893 12.8744 7.90064 13.1094 7.72681 13.2827C7.55297 13.4559 7.31697 13.5535 7.07153 13.554H5.21802Z" fill="url(#paint0_linear)"/>
<defs>
<linearGradient id="paint0_linear" x1="19.5868" y1="8.99719" x2="11.2344" y2="18.4985" gradientUnits="userSpaceOnUse">
<stop stop-color="#4388FF"/>
<stop offset="1" stop-color="#316BFF"/>
</linearGradient>
</defs>
</svg>
