<svg width="20" height="20" viewBox="0 0 20 20" fill="none" xmlns="http://www.w3.org/2000/svg">
<path d="M6.47601 1.191C6.47601 1.03532 6.41416 0.886016 6.30408 0.775932C6.19399 0.665848 6.04469 0.604004 5.889 0.604004H4.715C4.55932 0.604004 4.41002 0.665848 4.29993 0.775932C4.18985 0.886016 4.128 1.03532 4.128 1.191V4.127H1.191C1.11383 4.127 1.03742 4.14222 0.966138 4.17178C0.894855 4.20134 0.8301 4.24467 0.775579 4.29929C0.721058 4.3539 0.677841 4.41873 0.6484 4.49006C0.618959 4.5614 0.603873 4.63783 0.604005 4.715V5.889C0.604005 6.04469 0.665849 6.19399 0.775933 6.30408C0.886017 6.41416 1.03532 6.476 1.191 6.476H4.127V14.697C4.127 14.8515 4.15746 15.0044 4.21664 15.1471C4.27581 15.2898 4.36254 15.4194 4.47186 15.5286C4.58118 15.6377 4.71095 15.7242 4.85374 15.7831C4.99653 15.8421 5.14953 15.8723 5.304 15.872H12.351V13.523H6.47601V1.191ZM18.804 13.523H15.872V5.302C15.8717 4.99072 15.748 4.69226 15.5279 4.47215C15.3077 4.25204 15.0093 4.12827 14.698 4.128H7.651V6.477H13.523V18.808C13.523 18.9637 13.5848 19.113 13.6949 19.2231C13.805 19.3332 13.9543 19.395 14.11 19.395H15.284C15.4397 19.395 15.589 19.3332 15.6991 19.2231C15.8092 19.113 15.871 18.9637 15.871 18.808V15.872H18.804C18.9597 15.872 19.109 15.8102 19.2191 15.7001C19.3292 15.59 19.391 15.4407 19.391 15.285V14.11C19.391 13.9543 19.3292 13.805 19.2191 13.6949C19.109 13.5848 18.9597 13.523 18.804 13.523Z" fill="url(#paint0_linear)"/>
<defs>
<linearGradient id="paint0_linear" x1="9.9975" y1="0.604004" x2="4.75408" y2="12.0845" gradientUnits="userSpaceOnUse">
<stop stop-color="#4388FF"/>
<stop offset="1" stop-color="#316BFF"/>
</linearGradient>
</defs>
</svg>
