<svg width="21" height="16" viewBox="0 0 21 16" fill="none" xmlns="http://www.w3.org/2000/svg">
<path d="M19.245 0.372009H2.30299C1.92851 0.372009 1.56936 0.520775 1.30456 0.785576C1.03976 1.05038 0.890991 1.40952 0.890991 1.78401L0.890991 14.161C0.891256 14.5353 1.04014 14.8942 1.30491 15.1588C1.56968 15.4234 1.92868 15.572 2.30299 15.572H19.245C19.6195 15.572 19.9786 15.4232 20.2434 15.1584C20.5082 14.8936 20.657 14.5345 20.657 14.16V1.78401C20.657 1.40952 20.5082 1.05038 20.2434 0.785576C19.9786 0.520775 19.6195 0.372009 19.245 0.372009ZM18.539 13.078H17.833L13.55 7.74001C13.4695 7.6436 13.3688 7.56605 13.255 7.51284C13.1412 7.45963 13.0171 7.43205 12.8915 7.43205C12.7659 7.43205 12.6418 7.45963 12.528 7.51284C12.4142 7.56605 12.3135 7.6436 12.233 7.74001L9.43299 11.225L7.97499 9.20501C7.88898 9.09186 7.77798 9.00013 7.65065 8.93699C7.52332 8.87384 7.38312 8.84098 7.24099 8.84098C7.09886 8.84098 6.95866 8.87384 6.83133 8.93699C6.70401 9.00013 6.593 9.09186 6.50699 9.20501L3.70699 13.078H3.00899V2.49001H18.539V13.078ZM7.24399 6.72501C7.52326 6.72501 7.79625 6.6422 8.02846 6.48705C8.26066 6.33189 8.44164 6.11137 8.54851 5.85336C8.65538 5.59535 8.68334 5.31144 8.62886 5.03754C8.57438 4.76364 8.4399 4.51205 8.24243 4.31458C8.04495 4.1171 7.79336 3.98262 7.51946 3.92814C7.24556 3.87366 6.96165 3.90162 6.70364 4.00849C6.44563 4.11536 6.22511 4.29634 6.06996 4.52855C5.9148 4.76075 5.83199 5.03374 5.83199 5.31301C5.83199 5.6875 5.98075 6.04664 6.24556 6.31144C6.51036 6.57624 6.86951 6.72501 7.24399 6.72501Z" fill="url(#paint0_linear)"/>
<defs>
<linearGradient id="paint0_linear" x1="24.8079" y1="-3.10879" x2="15.5636" y2="17.6998" gradientUnits="userSpaceOnUse">
<stop stop-color="#4388FF"/>
<stop offset="1" stop-color="#316BFF"/>
</linearGradient>
</defs>
</svg>
