<svg width="124" height="34" viewBox="0 0 124 34" fill="none" xmlns="http://www.w3.org/2000/svg">
<path d="M57.0809 19.481C57.0809 21.9354 56.557 23.8517 55.5092 25.23C54.4613 26.5988 52.9981 27.2832 51.1195 27.2832C49.458 27.2832 48.1317 26.646 47.1405 25.3716L46.9564 27H43.2748V5.25H47.3671V13.0522C48.3111 11.9478 49.5524 11.3955 51.0912 11.3955C52.9603 11.3955 54.4235 12.0846 55.4808 13.4629C56.5476 14.8317 57.0809 16.7622 57.0809 19.2544V19.481ZM52.9886 19.1836C52.9886 17.6354 52.7432 16.5073 52.2523 15.7993C51.7614 15.0819 51.0298 14.7231 50.0575 14.7231C48.7548 14.7231 47.858 15.2565 47.3671 16.3232V22.3696C47.8674 23.4458 48.7736 23.9839 50.0858 23.9839C51.4074 23.9839 52.2759 23.3325 52.6913 22.0298C52.8895 21.4067 52.9886 20.458 52.9886 19.1836ZM63.9344 27H59.828V11.6787H63.9344V27ZM59.5873 7.71387C59.5873 7.10026 59.7902 6.59521 60.1962 6.19873C60.6115 5.80225 61.1732 5.604 61.8812 5.604C62.5798 5.604 63.1368 5.80225 63.5521 6.19873C63.9675 6.59521 64.1752 7.10026 64.1752 7.71387C64.1752 8.33691 63.9628 8.84668 63.538 9.24316C63.1226 9.63965 62.5704 9.83789 61.8812 9.83789C61.1921 9.83789 60.6351 9.63965 60.2103 9.24316C59.795 8.84668 59.5873 8.33691 59.5873 7.71387ZM73.6908 23.9839C74.446 23.9839 75.0596 23.7762 75.5316 23.3608C76.0036 22.9455 76.2491 22.3932 76.2679 21.7041H80.1053C80.0959 22.7425 79.8127 23.696 79.2557 24.5645C78.6988 25.4235 77.9341 26.0938 76.9618 26.5752C75.9989 27.0472 74.9322 27.2832 73.7616 27.2832C71.5715 27.2832 69.844 26.5894 68.579 25.2017C67.314 23.8045 66.6815 21.8787 66.6815 19.4243V19.1553C66.6815 16.7952 67.3093 14.9119 68.5648 13.5054C69.8204 12.0988 71.5432 11.3955 73.7333 11.3955C75.6496 11.3955 77.1836 11.943 78.3353 13.0381C79.4965 14.1237 80.0865 15.5728 80.1053 17.3853H76.2679C76.2491 16.5923 76.0036 15.9504 75.5316 15.4595C75.0596 14.9591 74.4366 14.709 73.6625 14.709C72.709 14.709 71.9869 15.0583 71.496 15.7568C71.0145 16.446 70.7738 17.5693 70.7738 19.127V19.5518C70.7738 21.1283 71.0145 22.2611 71.496 22.9502C71.9774 23.6393 72.709 23.9839 73.6908 23.9839ZM91.3202 27C91.1314 26.6318 90.9945 26.174 90.9095 25.6265C89.9183 26.731 88.6298 27.2832 87.0438 27.2832C85.5428 27.2832 84.2968 26.849 83.3055 25.9805C82.3238 25.112 81.8329 24.0169 81.8329 22.6953C81.8329 21.0716 82.4323 19.8255 83.6312 18.957C84.8396 18.0885 86.5813 17.6496 88.8563 17.6401H90.7396V16.7622C90.7396 16.0542 90.5555 15.4878 90.1874 15.063C89.8287 14.6382 89.2575 14.4258 88.474 14.4258C87.7849 14.4258 87.2421 14.591 86.8456 14.9214C86.4585 15.2518 86.265 15.7049 86.265 16.2808H82.1727C82.1727 15.3934 82.4465 14.5721 82.994 13.8169C83.5415 13.0617 84.3156 12.4717 85.3163 12.0469C86.3169 11.6126 87.4403 11.3955 88.6864 11.3955C90.5744 11.3955 92.0707 11.8722 93.1752 12.8257C94.2891 13.7697 94.8461 15.1007 94.8461 16.8188V23.46C94.8555 24.9137 95.0585 26.0135 95.455 26.7593V27H91.3202ZM87.9359 24.1538C88.5401 24.1538 89.097 24.0216 89.6068 23.7573C90.1166 23.4836 90.4942 23.1201 90.7396 22.667V20.0332H89.2103C87.1618 20.0332 86.0715 20.7412 85.9393 22.1572L85.9252 22.3979C85.9252 22.9077 86.1045 23.3278 86.4633 23.6582C86.822 23.9886 87.3129 24.1538 87.9359 24.1538ZM106.599 15.5161C106.042 15.4406 105.551 15.4028 105.126 15.4028C103.578 15.4028 102.563 15.9268 102.082 16.9746V27H97.9896V11.6787H101.855L101.969 13.5054C102.79 12.0988 103.927 11.3955 105.381 11.3955C105.834 11.3955 106.259 11.4569 106.656 11.5796L106.599 15.5161ZM107.661 19.2261C107.661 16.8377 108.194 14.9355 109.261 13.5195C110.337 12.1035 111.805 11.3955 113.665 11.3955C115.156 11.3955 116.388 11.9525 117.361 13.0664V5.25H121.467V27H117.771L117.573 25.3716C116.554 26.646 115.241 27.2832 113.637 27.2832C111.834 27.2832 110.384 26.5752 109.289 25.1592C108.204 23.7337 107.661 21.756 107.661 19.2261ZM111.753 19.5234C111.753 20.9583 112.003 22.0581 112.504 22.8228C113.004 23.5874 113.731 23.9697 114.684 23.9697C115.949 23.9697 116.842 23.4364 117.361 22.3696V16.3232C116.851 15.2565 115.968 14.7231 114.713 14.7231C112.74 14.7231 111.753 16.3232 111.753 19.5234Z" fill="#18232F"/>
<path d="M18.2621 28.7996L18.0262 28.5616L25.5672 21.0216C26.5033 20.0834 27.029 18.812 27.029 17.4866C27.029 16.1612 26.5033 14.8899 25.5672 13.9516L18.0262 6.40964L18.2621 6.17163C18.6336 5.80017 19.0746 5.50554 19.5599 5.3045C20.0452 5.10347 20.5654 5 21.0907 5C21.616 5 22.1361 5.10347 22.6214 5.3045C23.1067 5.50554 23.5477 5.80017 23.9192 6.17163V6.17163L32.4022 14.6556C32.7736 15.0271 33.0683 15.468 33.2693 15.9533C33.4703 16.4387 33.5738 16.9588 33.5738 17.4841C33.5738 18.0094 33.4703 18.5296 33.2693 19.0149C33.0683 19.5002 32.7736 19.9412 32.4022 20.3126V20.3126L23.9192 28.7986C23.5477 29.1701 23.1067 29.4647 22.6214 29.6658C22.1361 29.8668 21.616 29.9703 21.0907 29.9703C20.5654 29.9703 20.0452 29.8668 19.5599 29.6658C19.0746 29.4647 18.6336 29.1701 18.2621 28.7986V28.7986V28.7996ZM9.65616 28.7996L1.17114 20.3136C0.421258 19.5635 0 18.5463 0 17.4856C0 16.425 0.421258 15.4077 1.17114 14.6576L9.65616 6.17163C10.0276 5.80017 10.4686 5.50554 10.9539 5.3045C11.4392 5.10347 11.9593 5 12.4846 5C13.01 5 13.5301 5.10347 14.0154 5.3045C14.5008 5.50554 14.9417 5.80017 15.3131 6.17163V6.17163L23.7961 14.6576C24.546 15.4077 24.9673 16.425 24.9673 17.4856C24.9673 18.5463 24.546 19.5635 23.7961 20.3136L15.3131 28.7996C14.9417 29.1711 14.5008 29.4657 14.0154 29.6668C13.5301 29.8678 13.01 29.9713 12.4846 29.9713C11.9593 29.9713 11.4392 29.8678 10.9539 29.6668C10.4686 29.4657 10.0276 29.1711 9.65616 28.7996V28.7996Z" fill="url(#paint0_linear)"/>
<defs>
<linearGradient id="paint0_linear" x1="25.5161" y1="17.4856" x2="20.1796" y2="31.2835" gradientUnits="userSpaceOnUse">
<stop stop-color="#4388FF"/>
<stop offset="1" stop-color="#316BFF"/>
</linearGradient>
</defs>
</svg>
