<svg width="135" height="34" viewBox="0 0 135 34" fill="none" xmlns="http://www.w3.org/2000/svg">
<path d="M68.3779 19.481C68.3779 21.9354 67.854 23.8517 66.8062 25.23C65.7583 26.5988 64.2951 27.2832 62.4165 27.2832C60.755 27.2832 59.4287 26.646 58.4375 25.3716L58.2534 27H54.5718V5.25H58.6641V13.0522C59.6081 11.9478 60.8494 11.3955 62.3882 11.3955C64.2573 11.3955 65.7205 12.0846 66.7778 13.4629C67.8446 14.8317 68.3779 16.7622 68.3779 19.2544V19.481ZM64.2856 19.1836C64.2856 17.6354 64.0402 16.5073 63.5493 15.7993C63.0584 15.0819 62.3268 14.7231 61.3545 14.7231C60.0518 14.7231 59.1549 15.2565 58.6641 16.3232V22.3696C59.1644 23.4458 60.0706 23.9839 61.3828 23.9839C62.7044 23.9839 63.5729 23.3325 63.9883 22.0298C64.1865 21.4067 64.2856 20.458 64.2856 19.1836ZM75.2314 27H71.125V11.6787H75.2314V27ZM70.8843 7.71387C70.8843 7.10026 71.0872 6.59521 71.4932 6.19873C71.9085 5.80225 72.4702 5.604 73.1782 5.604C73.8768 5.604 74.4338 5.80225 74.8491 6.19873C75.2645 6.59521 75.4722 7.10026 75.4722 7.71387C75.4722 8.33691 75.2598 8.84668 74.835 9.24316C74.4196 9.63965 73.8674 9.83789 73.1782 9.83789C72.4891 9.83789 71.9321 9.63965 71.5073 9.24316C71.092 8.84668 70.8843 8.33691 70.8843 7.71387ZM84.9878 23.9839C85.743 23.9839 86.3566 23.7762 86.8286 23.3608C87.3006 22.9455 87.5461 22.3932 87.5649 21.7041H91.4023C91.3929 22.7425 91.1097 23.696 90.5527 24.5645C89.9958 25.4235 89.2311 26.0938 88.2588 26.5752C87.2959 27.0472 86.2292 27.2832 85.0586 27.2832C82.8685 27.2832 81.141 26.5894 79.876 25.2017C78.611 23.8045 77.9785 21.8787 77.9785 19.4243V19.1553C77.9785 16.7952 78.6063 14.9119 79.8618 13.5054C81.1174 12.0988 82.8402 11.3955 85.0303 11.3955C86.9466 11.3955 88.4806 11.943 89.6323 13.0381C90.7935 14.1237 91.3835 15.5728 91.4023 17.3853H87.5649C87.5461 16.5923 87.3006 15.9504 86.8286 15.4595C86.3566 14.9591 85.7336 14.709 84.9595 14.709C84.006 14.709 83.2839 15.0583 82.793 15.7568C82.3115 16.446 82.0708 17.5693 82.0708 19.127V19.5518C82.0708 21.1283 82.3115 22.2611 82.793 22.9502C83.2744 23.6393 84.006 23.9839 84.9878 23.9839ZM102.617 27C102.428 26.6318 102.292 26.174 102.207 25.6265C101.215 26.731 99.9268 27.2832 98.3408 27.2832C96.8398 27.2832 95.5938 26.849 94.6025 25.9805C93.6208 25.112 93.1299 24.0169 93.1299 22.6953C93.1299 21.0716 93.7293 19.8255 94.9282 18.957C96.1366 18.0885 97.8783 17.6496 100.153 17.6401H102.037V16.7622C102.037 16.0542 101.853 15.4878 101.484 15.063C101.126 14.6382 100.555 14.4258 99.771 14.4258C99.0819 14.4258 98.5391 14.591 98.1426 14.9214C97.7555 15.2518 97.562 15.7049 97.562 16.2808H93.4697C93.4697 15.3934 93.7435 14.5721 94.291 13.8169C94.8385 13.0617 95.6126 12.4717 96.6133 12.0469C97.6139 11.6126 98.7373 11.3955 99.9834 11.3955C101.871 11.3955 103.368 11.8722 104.472 12.8257C105.586 13.7697 106.143 15.1007 106.143 16.8188V23.46C106.153 24.9137 106.355 26.0135 106.752 26.7593V27H102.617ZM99.2329 24.1538C99.8371 24.1538 100.394 24.0216 100.904 23.7573C101.414 23.4836 101.791 23.1201 102.037 22.667V20.0332H100.507C98.4588 20.0332 97.3685 20.7412 97.2363 22.1572L97.2222 22.3979C97.2222 22.9077 97.4015 23.3278 97.7603 23.6582C98.119 23.9886 98.6099 24.1538 99.2329 24.1538ZM117.896 15.5161C117.339 15.4406 116.848 15.4028 116.423 15.4028C114.875 15.4028 113.86 15.9268 113.379 16.9746V27H109.287V11.6787H113.152L113.266 13.5054C114.087 12.0988 115.224 11.3955 116.678 11.3955C117.131 11.3955 117.556 11.4569 117.953 11.5796L117.896 15.5161ZM118.958 19.2261C118.958 16.8377 119.491 14.9355 120.558 13.5195C121.634 12.1035 123.102 11.3955 124.962 11.3955C126.453 11.3955 127.685 11.9525 128.658 13.0664V5.25H132.764V27H129.068L128.87 25.3716C127.851 26.646 126.538 27.2832 124.934 27.2832C123.131 27.2832 121.681 26.5752 120.586 25.1592C119.501 23.7337 118.958 21.756 118.958 19.2261ZM123.05 19.5234C123.05 20.9583 123.3 22.0581 123.801 22.8228C124.301 23.5874 125.028 23.9697 125.981 23.9697C127.246 23.9697 128.139 23.4364 128.658 22.3696V16.3232C128.148 15.2565 127.265 14.7231 126.01 14.7231C124.037 14.7231 123.05 16.3232 123.05 19.5234Z" fill="white"/>
<path d="M23.6415 32.0287L23.336 31.7227L33.0984 22.0284C34.3103 20.8221 34.9909 19.1875 34.9909 17.4834C34.9909 15.7793 34.3103 14.1448 33.0984 12.9384L23.336 3.24159L23.6415 2.93558C24.1224 2.458 24.6932 2.07917 25.3215 1.8207C25.9498 1.56224 26.6232 1.4292 27.3032 1.4292C27.9833 1.4292 28.6566 1.56224 29.2849 1.8207C29.9132 2.07917 30.4841 2.458 30.9649 2.93558V2.93558L41.9468 13.8436C42.4277 14.3212 42.8091 14.8881 43.0694 15.5121C43.3296 16.136 43.4636 16.8048 43.4636 17.4802C43.4636 18.1556 43.3296 18.8244 43.0694 19.4484C42.8091 20.0724 42.4277 20.6393 41.9468 21.1169V21.1169L30.9649 32.0275C30.4841 32.505 29.9132 32.8839 29.2849 33.1423C28.6566 33.4008 27.9833 33.5338 27.3032 33.5338C26.6232 33.5338 25.9498 33.4008 25.3215 33.1423C24.6932 32.8839 24.1224 32.505 23.6415 32.0275V32.0275V32.0287ZM12.5004 32.0287L1.51595 21.1182C0.545167 20.1537 -0.000183105 18.8458 -0.000183105 17.4821C-0.000183105 16.1184 0.545167 14.8106 1.51595 13.8461L12.5004 2.93558C12.9813 2.458 13.5522 2.07917 14.1804 1.8207C14.8087 1.56224 15.4821 1.4292 16.1621 1.4292C16.8422 1.4292 17.5156 1.56224 18.1438 1.8207C18.7721 2.07917 19.343 2.458 19.8238 2.93558V2.93558L30.8057 13.8461C31.7765 14.8106 32.3218 16.1184 32.3218 17.4821C32.3218 18.8458 31.7765 20.1537 30.8057 21.1182L19.8238 32.0287C19.343 32.5063 18.7721 32.8852 18.1438 33.1436C17.5156 33.4021 16.8422 33.5351 16.1621 33.5351C15.4821 33.5351 14.8087 33.4021 14.1804 33.1436C13.5522 32.8852 12.9813 32.5063 12.5004 32.0287V32.0287Z" fill="white"/>
</svg>
