<svg width="34" height="25" viewBox="0 0 34 25" fill="none" xmlns="http://www.w3.org/2000/svg">
<path d="M18.2621 23.7996L18.0262 23.5616L25.5672 16.0216C26.5033 15.0834 27.029 13.812 27.029 12.4866C27.029 11.1612 26.5033 9.88992 25.5672 8.95163L18.0262 1.40964L18.2621 1.17163C18.6336 0.800175 19.0746 0.505536 19.5599 0.304504C20.0452 0.103473 20.5654 0 21.0907 0C21.616 0 22.1361 0.103473 22.6214 0.304504C23.1067 0.505536 23.5477 0.800175 23.9192 1.17163L32.4022 9.65564C32.7736 10.0271 33.0683 10.468 33.2693 10.9533C33.4703 11.4387 33.5738 11.9588 33.5738 12.4841C33.5738 13.0094 33.4703 13.5296 33.2693 14.0149C33.0683 14.5002 32.7736 14.9412 32.4022 15.3126L23.9192 23.7986C23.5477 24.1701 23.1067 24.4647 22.6214 24.6658C22.1361 24.8668 21.616 24.9703 21.0907 24.9703C20.5654 24.9703 20.0452 24.8668 19.5599 24.6658C19.0746 24.4647 18.6336 24.1701 18.2621 23.7986V23.7996ZM9.65616 23.7996L1.17114 15.3136C0.421258 14.5635 0 13.5463 0 12.4856C0 11.425 0.421258 10.4077 1.17114 9.65762L9.65616 1.17163C10.0276 0.800175 10.4686 0.505536 10.9539 0.304504C11.4392 0.103473 11.9593 0 12.4846 0C13.01 0 13.5301 0.103473 14.0154 0.304504C14.5008 0.505536 14.9417 0.800175 15.3131 1.17163L23.7961 9.65762C24.546 10.4077 24.9673 11.425 24.9673 12.4856C24.9673 13.5463 24.546 14.5635 23.7961 15.3136L15.3131 23.7996C14.9417 24.1711 14.5008 24.4657 14.0154 24.6668C13.5301 24.8678 13.01 24.9713 12.4846 24.9713C11.9593 24.9713 11.4392 24.8678 10.9539 24.6668C10.4686 24.4657 10.0276 24.1711 9.65616 23.7996Z" fill="url(#paint0_linear)"/>
<defs>
<linearGradient id="paint0_linear" x1="25.5161" y1="12.4856" x2="20.1796" y2="26.2835" gradientUnits="userSpaceOnUse">
<stop stop-color="#4388FF"/>
<stop offset="1" stop-color="#316BFF"/>
</linearGradient>
</defs>
</svg>
